<?xml version="1.0" encoding="UTF-8"?>
<svg xmlns="http://www.w3.org/2000/svg" width="539" height="334" viewBox="0 0 539 334" fill="none">
  <path d="M28.875 334H539V49.0136L537.987 58.1089L534.947 65.6883L531.401 71.7519L526.842 75.289L521.27 79.8366L515.191 82.3631H508.099H68.3882H37.9934H27.3553H22.2895L19.7566 83.879L17.7303 85.3949L14.6908 87.416L11.6513 89.9425L9.625 91.9637L6.58553 95.5008L4.05263 98.5325L2.53289 102.575L1.01316 107.123L0 111.67V116.218L1.01316 120.766L2.53289 124.808L5.06579 133.398L8.61184 146.536L45.5921 271.343L50.1513 287.008L52.1776 295.598V304.188V310.756L50.1513 315.809L45.5921 321.873L40.5263 326.926L33.9408 331.979L28.875 334Z" fill="white"></path>
</svg>