<svg xmlns="http://www.w3.org/2000/svg" viewBox="0 0 342.93 78.94"><defs><style>.cls-1{fill:#231f20;}.cls-2{fill:none;}.cls-3{fill:#999;}.cls-4{fill:#00b3f0;}.cls-5{fill:#003763;}</style></defs><title>Asset 2</title><g id="Layer_2" data-name="Layer 2"><g id="Layer_1-2" data-name="Layer 1"><path class="cls-1" d="M103.31,45.81c0,1.65.6,3.9,2.38,3.9a.93.93,0,0,1,.92,1c0,.53-.26,1.06-.86,1.06a17.93,17.93,0,0,1-3.16-.27c-.8-.06-1.65-.19-2.84-.19a13.49,13.49,0,0,0-2.18.19,29.89,29.89,0,0,1-3.76.27c-.6,0-.86-.53-.86-1.06a1,1,0,0,1,1-1c1.72,0,2.38-2.31,2.38-4V14.07c-.07-1.58-.66-3.89-2.38-3.89a1,1,0,0,1-1-1.06c0-.53.26-1,.86-1,1.38,0,2.31.13,3.17.2a15.51,15.51,0,0,0,2.77.2H100a18.4,18.4,0,0,0,2.31-.2c1.12-.07,2.38-.2,3.43-.2H112c11.75,0,16.17,4.42,16.17,12s-5.81,12.14-16.7,12.14h-8.18Zm0-15.84c1.85-.06,3.76-.06,5.68-.06h2.57a9.68,9.68,0,0,0,9.7-9.77c0-7.46-5.61-9.37-9.9-9.37h-8Z"/><path class="cls-1" d="M140.27,27.33h7.92c4.29-.06,6.4-.85,6.4-3a1.06,1.06,0,0,1,1.06-1.12,1,1,0,0,1,1,1.05v8.32a1.05,1.05,0,0,1-1,1.12,1,1,0,0,1-1.06-1.12c0-2.38-2.18-3-6.4-3h-7.92v19.6h11.48c4.95,0,7.53-.66,9.31-5.21a1,1,0,0,1,1.05-.73,1.08,1.08,0,0,1,1.06,1v.13c-.33,1.52-.86,5.35-.86,5.35a2.52,2.52,0,0,1-2.57,2.18h-17a18.07,18.07,0,0,1-3.36-.27,25,25,0,0,0-2.64-.19,15,15,0,0,0-2.25.19,27.79,27.79,0,0,1-3.69.27c-.6,0-.86-.46-.86-1a1,1,0,0,1,1-1.06c1.72,0,2.38-2.37,2.38-4V14.07c-.07-1.58-.66-3.83-2.38-3.83a1,1,0,0,1-1-1.05c0-.53.26-1.06.86-1.06a18.15,18.15,0,0,1,3.17.27,27.5,27.5,0,0,0,2.77.19,11.15,11.15,0,0,0,1.91-.19,18.33,18.33,0,0,1,3-.27h17.15a2.62,2.62,0,0,1,2.58,2.18s.46,3.83.79,5.34v.2a1,1,0,0,1-1.06.93,1.15,1.15,0,0,1-1.05-.73c-1.78-4.55-4.29-5.21-9.31-5.21H140.27Z"/><path class="cls-1" d="M190,37.43H174.46c-1.59,4-2.84,7.06-3.1,7.79A4.47,4.47,0,0,0,171,46.8c0,1.52.85,2.84,2.44,2.84a1,1,0,0,1,1.05,1,1,1,0,0,1-1.05,1.06c-.93,0-1.72-.07-2.51-.14s-1.45-.13-2.24-.13c-.6,0-1.26.07-1.85.13a17.53,17.53,0,0,1-1.91.14,1.07,1.07,0,0,1-1.19-1A1.1,1.1,0,0,1,165,49.64c2,0,3.3-2.84,4-4.42.59-1.25,5.74-14.39,9.76-24.48,2.18-5.61,4.1-10.3,4.56-11.55A1.88,1.88,0,0,1,185.08,8a2,2,0,0,1,1.72,1.12c.92,2.31,4,10,7,17.69,3.44,8.64,6.87,17.42,7.33,18.41.66,1.52,2,4.22,3.76,4.42v-.07a1.21,1.21,0,0,1,1.32,1.13,1,1,0,0,1-1.06,1c-.52,0-1.45-.07-2.44-.14-1.25-.06-2.83-.19-4.22-.19-1.65,0-3.1.13-4.36.19-.92.07-1.78.14-2.44.14a.88.88,0,0,1-.92-1,1,1,0,0,1,.92-1.06c1.19,0,1.72-.86,1.72-2a5.24,5.24,0,0,0-.53-2.17C192.28,44,191.22,41,190,37.43Zm-14.79-2h14.06c-3.1-8.71-6.6-19.08-6.6-19.08C181.65,18.76,178.15,27.93,175.18,35.39Z"/><path class="cls-1" d="M217.49,45.81c0,1.65.59,3.9,2.38,3.9a.93.93,0,0,1,.92,1c0,.53-.26,1.06-.86,1.06a18.15,18.15,0,0,1-3.17-.27c-.79-.06-1.65-.19-2.83-.19a13.49,13.49,0,0,0-2.18.19,29.89,29.89,0,0,1-3.76.27c-.6,0-.86-.53-.86-1.06a1,1,0,0,1,1-1c1.71,0,2.37-2.31,2.37-4V14.07c-.06-1.58-.66-3.89-2.37-3.89a1,1,0,0,1-1-1.06c0-.53.26-1,.86-1a19.86,19.86,0,0,1,3.3.27c.72.06,1.58.13,2.64.19a16.27,16.27,0,0,0,2.17-.19,37.85,37.85,0,0,1,3.83-.27h6.27c11.75,0,16.17,4.42,16.17,12,0,5.41-3,9.17-8.51,11,3.63,6.79,8.31,15.57,9.1,16.76,1.06,1.45,1.92,1.85,2.77,1.85.6,0,.86.52.86,1a1,1,0,0,1-1,1.06,13.43,13.43,0,0,1-2.37-.2,23,23,0,0,0-3.57-.26,26.28,26.28,0,0,0-3.3.26c-1,.07-1.91.2-2.9.2a1,1,0,0,1-.86-1.06.85.85,0,0,1,.86-.92c.86,0,1.25-.4,1.25-1.12a5.68,5.68,0,0,0-.79-2.45c-.79-1.78-4.35-8.25-7-13l-.6-1.05h-.13a1.6,1.6,0,0,1-.53.06h-8.18Zm0-15.84h3c2.18-.06,4.69-.06,5.28-.06a9.49,9.49,0,0,0,9.7-9.77c0-7.46-5.61-9.37-9.9-9.37h-8Z"/><path class="cls-1" d="M277.61,43.17a1,1,0,0,1,1.06.93v.19c-.33,1.52-.79,5.35-.79,5.35a2.64,2.64,0,0,1-2.64,2.18H260.85a37.85,37.85,0,0,1-3.83-.27,16.27,16.27,0,0,0-2.17-.19c-1.06.06-1.92.13-2.64.19a19.86,19.86,0,0,1-3.3.27c-.6,0-.86-.53-.86-1.06a1,1,0,0,1,1-1c1.72,0,2.31-2.25,2.38-3.9V14.14c0-1.59-.66-4-2.38-4a1,1,0,0,1-1-1.06c0-.53.26-1,.86-1a27.79,27.79,0,0,1,3.69.27c.86.06,1.59.13,2.25.13a17.06,17.06,0,0,0,2.84-.2c.85-.07,1.78-.2,3.16-.2a.9.9,0,0,1,.86,1,.93.93,0,0,1-.92,1.06c-1.79,0-2.38,2.31-2.38,3.89v35h8.84c5,0,7.53-.66,9.31-5.21A1.1,1.1,0,0,1,277.61,43.17Z"/><path class="cls-1" d="M331.93,29.45H314.44V45.88c0,1.58.6,3.83,2.38,3.83a.93.93,0,0,1,.92,1c0,.53-.26,1.06-.86,1.06a17.93,17.93,0,0,1-3.16-.27c-.8-.06-1.65-.19-2.84-.19a13.49,13.49,0,0,0-2.18.19,29.75,29.75,0,0,1-3.76.27c-.59,0-.86-.53-.86-1.06a1,1,0,0,1,1-1c1.72,0,2.38-2.31,2.38-3.9V14.07c-.07-1.58-.66-3.89-2.38-3.89a1,1,0,0,1-1-1.06c0-.53.27-1,.86-1a18.05,18.05,0,0,1,3.17.27,27.5,27.5,0,0,0,2.77.19,14.8,14.8,0,0,0,2.24-.19,29.89,29.89,0,0,1,3.76-.27.9.9,0,0,1,.86,1,.93.93,0,0,1-.92,1.06c-1.78,0-2.38,2.37-2.38,4V27.4h17.49V14.07c0-1.58-.66-3.89-2.31-3.89a.94.94,0,0,1-1-1,1,1,0,0,1,.92-1.06,17.06,17.06,0,0,1,3,.27c.79.06,1.65.19,2.84.19a15.77,15.77,0,0,0,2.31-.19,28.58,28.58,0,0,1,3.63-.27.91.91,0,0,1,.86,1,.94.94,0,0,1-.93,1.06c-1.71,0-2.31,2.37-2.31,4V45.88c0,1.58.6,3.83,2.31,3.83a.93.93,0,0,1,.93,1c0,.53-.27,1.06-.86,1.06a17.72,17.72,0,0,1-3.1-.27c-.8-.06-1.65-.19-2.84-.19a15,15,0,0,0-2.25.19,27.62,27.62,0,0,1-3.63.27c-.52,0-.85-.6-.92-1.06s.33-1,1-1c1.72,0,2.31-2.31,2.31-3.9Z"/><path class="cls-1" d="M99.73,68.78c-.18,2-2.35,2.39-4.62,2.39h-.62c-.42,0-.59-.1-1.07-.1-.33,0-.77.1-1.31.1-.17,0-.18-.39,0-.39.42,0,.58-.53.58-.9v-7c0-.37-.16-.89-.58-.89-.21,0-.2-.39,0-.39.59,0,.77.1,1.31.1.29,0,1-.1,1.17-.1h.7c2.26,0,3.76.94,3.76,2.49a2.17,2.17,0,0,1-1.57,2.15A2.29,2.29,0,0,1,99.73,68.78ZM95.54,66a1.83,1.83,0,0,0,2-1.85,1.92,1.92,0,0,0-2.17-2h-1.2V66Zm-1.4,4.64H95.5c1.54,0,2.47-.82,2.47-2.12a2.29,2.29,0,0,0-2.37-2.14H94.14Z"/><path class="cls-1" d="M102.86,69.88c0,.38.14.89.57.89.2,0,.19.4,0,.4-.59,0-.77-.1-1.31-.1-.34,0-.78.1-1.31.1-.18,0-.19-.4,0-.4.42,0,.58-.52.58-.91V62.92c0-.37-.16-.89-.58-.89-.21,0-.2-.39,0-.39.59,0,.76.09,1.31.1.24,0,.87-.1,1.31-.1h1.38c2.53,0,3.48,1,3.48,2.61a2.36,2.36,0,0,1-1.87,2.39c.79,1.49,1.83,3.44,2,3.71a.79.79,0,0,0,.67.42c.17,0,.18.4,0,.4-.45,0-.65-.1-1.31-.1s-.91.1-1.37.1c-.14,0-.19-.37,0-.37.41,0,.44-.28.16-.84s-1.11-2-1.68-3.09h-2Zm1.87-3.46a2.12,2.12,0,0,0,2.18-2.17,2,2,0,0,0-2.23-2.09h-1.82v4.28Z"/><path class="cls-1" d="M112.83,71.17c-.59,0-.76-.1-1.31-.1-.33,0-.77.1-1.31.1-.17,0-.18-.4,0-.4.42,0,.58-.52.58-.89v-7c0-.37-.16-.89-.58-.89-.21,0-.2-.39,0-.39.59,0,.77.1,1.31.1.34,0,.78-.1,1.31-.1.18,0,.19.39,0,.39-.43,0-.58.53-.58.91v7c0,.37.15.88.58.88C113,70.77,113,71.17,112.83,71.17Z"/><path class="cls-1" d="M117.92,61.64c2.23,0,4.3,1.28,4.3,4.75s-2.37,4.78-4.65,4.78h-1c-.42,0-.59-.1-1.07-.1s-.77.1-1.31.1c-.17,0-.18-.4,0-.4.42,0,.58-.52.58-.89v-7c0-.37-.16-.89-.58-.89-.21,0-.2-.39,0-.39.59,0,.77.1,1.31.1.29,0,1-.1,1.17-.1Zm2.69,4.77c0-2.85-1.74-4.25-2.71-4.25h-1.7v8.48h1.66C118.66,70.64,120.61,69.49,120.61,66.41Z"/><path class="cls-1" d="M132.1,66.72V71a.21.21,0,0,1-.2.2.16.16,0,0,1-.12,0l-1-.65a4.44,4.44,0,0,1-2.6.83,4.77,4.77,0,0,1-4.74-5c0-3,2-4.82,4.34-4.82,2,0,3.3.8,3.67,1.78a.7.7,0,0,1-.57,1c-.31,0-.64-.23-.81-.8a2.21,2.21,0,0,0-2.12-1.64,2.49,2.49,0,0,0-.64.08c-1.33.36-2.59,2.51-1.89,5.44.42,1.67,1.61,3.3,3.5,3.3a1.77,1.77,0,0,0,1.81-1.74V67.66c0-.5-.13-1-.59-1a.22.22,0,1,1,0-.44h1.47A.53.53,0,0,1,132.1,66.72Z"/><path class="cls-1" d="M136.1,71.17c-.59,0-.76-.1-1.31-.1-.33,0-.77.1-1.31.1-.17,0-.18-.4,0-.4.42,0,.58-.52.58-.89v-7c0-.37-.16-.89-.58-.89-.21,0-.2-.39,0-.39.59,0,.77.1,1.31.1.34,0,.78-.1,1.31-.1.18,0,.19.39,0,.39-.43,0-.58.53-.58.91v7c0,.37.15.88.58.88C136.29,70.77,136.28,71.17,136.1,71.17Z"/><path class="cls-1" d="M145.48,71.17c-.81,0-1-.11-1.36-.11a1.9,1.9,0,0,0-.31,0,.5.5,0,0,1-.48-.3l-4.86-7.54v6.64c0,.37.14.9.57.9.22,0,.2.39,0,.39s-.51-.09-.8-.09-.53.09-.79.09-.2-.39,0-.39c.41,0,.56-.52.57-.89v-7c0-.38-.14-.91-.57-.91-.22,0-.28-.39,0-.39a13.42,13.42,0,0,1,1.34.12,1.35,1.35,0,0,0,.33,0,.46.46,0,0,1,.46.3l4.87,7.54V62.94c0-.38-.15-.91-.58-.91-.21,0-.19-.39,0-.39s.5.09.79.09.55-.09.81-.09.18.39,0,.39c-.42,0-.56.52-.56.89v7c0,.37.14.89.56.89C145.66,70.77,145.72,71.17,145.48,71.17Z"/><path class="cls-1" d="M155.32,66.72V71a.21.21,0,0,1-.2.2.15.15,0,0,1-.11,0l-1-.65a4.41,4.41,0,0,1-2.59.83,4.78,4.78,0,0,1-4.75-5c0-3,2-4.82,4.35-4.82,2,0,3.29.8,3.67,1.78a.71.71,0,0,1-.58,1c-.3,0-.63-.23-.8-.8a2.22,2.22,0,0,0-2.12-1.64,2.56,2.56,0,0,0-.65.08c-1.32.36-2.59,2.51-1.88,5.44.42,1.67,1.61,3.3,3.49,3.3a1.78,1.78,0,0,0,1.82-1.74V67.66c0-.5-.13-1-.59-1a.22.22,0,1,1,0-.44h1.47A.53.53,0,0,1,155.32,66.72Z"/><path class="cls-1" d="M171,62c-.5,0-.79.62-.95,1s-2.84,7.16-3.15,7.89a.34.34,0,0,1-.31.25.36.36,0,0,1-.31-.23c-.45-1-3-7.49-3.14-7.91s-.52-1-1-1c-.23,0-.26-.39,0-.39s1,.07,1.46.07,1.14-.07,1.5-.07.19.39,0,.39c-.47,0-.53.49-.33,1,.46,1.09,2.32,6.52,2.32,6.52s2.31-5.95,2.52-6.48,0-1-.52-1a.19.19,0,0,1,0-.38c.37,0,.7,0,1.06,0s.54,0,.82,0A.2.2,0,1,1,171,62Z"/><path class="cls-1" d="M174.61,71.17c-.59,0-.76-.1-1.31-.1-.33,0-.78.1-1.31.1-.17,0-.19-.4,0-.4.42,0,.57-.52.57-.89v-7c0-.37-.15-.89-.57-.89-.22,0-.2-.39,0-.39.59,0,.76.1,1.31.1.33,0,.78-.1,1.31-.1.17,0,.19.39,0,.39-.44,0-.58.53-.58.91v7c0,.37.14.88.58.88C174.8,70.77,174.78,71.17,174.61,71.17Z"/><path class="cls-1" d="M182.67,68.64c0,1.82-1.8,2.69-3.34,2.69a3.86,3.86,0,0,1-3.64-2.17c-.1-.58.23-.9.59-.9a.62.62,0,0,1,.49.25c.6.73.32,2.43,2.46,2.43,1.14,0,1.93-.66,1.93-1.58s-.6-1.44-2-2.1c-1.89-.9-3.29-1.92-3.16-3.49s1.9-2.31,3.14-2.31a4.25,4.25,0,0,1,3,1.16c.69.62.3,1.22-.19,1.22a.66.66,0,0,1-.5-.25c-.4-.49-.89-1.72-2.22-1.72a1.44,1.44,0,0,0-1.58,1.44c0,1.34,1.61,2.09,2.55,2.52C182.05,66.74,182.67,67.5,182.67,68.64Z"/><path class="cls-1" d="M186.42,71.17c-.59,0-.77-.1-1.31-.1-.33,0-.78.1-1.31.1-.17,0-.19-.4,0-.4.41,0,.57-.52.57-.89v-7c0-.37-.16-.89-.57-.89-.22,0-.2-.39,0-.39.59,0,.76.1,1.31.1.33,0,.77-.1,1.31-.1.17,0,.18.39,0,.39-.43,0-.57.53-.57.91v7c0,.37.14.88.57.88C186.6,70.77,186.59,71.17,186.42,71.17Z"/><path class="cls-1" d="M196.29,66.32c0,2.55-1.64,5-4.33,5-2.48,0-4.4-2.12-4.4-4.89a4.66,4.66,0,0,1,4.49-4.95C194.51,61.47,196.28,63.31,196.29,66.32Zm-1.59,0c0-2.52-1.26-4.55-2.81-4.55s-2.81,2-2.81,4.55,1.25,4.56,2.81,4.56S194.7,68.87,194.7,66.35Z"/><path class="cls-1" d="M205.48,71.17c-.81,0-1-.11-1.35-.11a2,2,0,0,0-.32,0,.49.49,0,0,1-.47-.3l-4.87-7.54v6.64c0,.37.14.9.58.9.21,0,.2.39,0,.39s-.5-.09-.79-.09-.53.09-.79.09-.2-.39,0-.39c.42,0,.56-.52.58-.89v-7c0-.38-.15-.91-.58-.91-.21,0-.27-.39,0-.39a13.42,13.42,0,0,1,1.34.12,1.35,1.35,0,0,0,.33,0,.47.47,0,0,1,.46.3l4.86,7.54V62.94c0-.38-.14-.91-.57-.91-.22,0-.19-.39,0-.39s.51.09.79.09.55-.09.81-.09.19.39,0,.39c-.42,0-.56.52-.56.89v7c0,.37.14.89.56.89C205.67,70.77,205.72,71.17,205.48,71.17Z"/><path class="cls-1" d="M214.31,68l-.68,1.71c-.18.49,0,1,.52,1,.23,0,.23.39,0,.39s-.7-.06-1.05-.06-.54.06-.82.06a.2.2,0,1,1,0-.39c.49,0,.77-.63.93-1s2.85-7.15,3.15-7.9a.33.33,0,0,1,.64,0c.43,1.06,2.95,7.5,3.13,7.92s.52,1,.95,1h0c.22,0,.26.4,0,.4s-.93-.07-1.46-.07-1.14.07-1.49.07-.2-.39,0-.39c.46,0,.54-.49.32-1-.13-.3-.37-1-.65-1.75Zm.15-.39h3.22c-.68-1.93-1.51-4.37-1.51-4.37Z"/><path class="cls-1" d="M230.15,71.17c-.81,0-1-.11-1.36-.11a1.9,1.9,0,0,0-.31,0,.51.51,0,0,1-.48-.3l-4.86-7.54v6.64c0,.37.14.9.57.9.22,0,.2.39,0,.39s-.51-.09-.79-.09-.54.09-.8.09-.2-.39,0-.39c.42,0,.56-.52.57-.89v-7c0-.38-.14-.91-.57-.91-.22,0-.27-.39,0-.39a12.79,12.79,0,0,1,1.34.12,1.35,1.35,0,0,0,.33,0,.46.46,0,0,1,.46.3l4.87,7.54V62.94c0-.38-.14-.91-.58-.91-.21,0-.18-.39,0-.39s.5.09.79.09.55-.09.81-.09.18.39,0,.39c-.42,0-.56.52-.56.89v7c0,.37.14.89.56.89C230.33,70.77,230.39,71.17,230.15,71.17Z"/><path class="cls-1" d="M235.25,61.64c2.23,0,4.3,1.28,4.3,4.75s-2.38,4.78-4.65,4.78h-1c-.42,0-.59-.1-1.07-.1s-.77.1-1.31.1c-.17,0-.18-.4,0-.4.42,0,.58-.52.58-.89v-7c0-.37-.16-.89-.58-.89-.21,0-.2-.39,0-.39.59,0,.77.1,1.31.1.29,0,1-.1,1.17-.1Zm2.69,4.77c0-2.85-1.74-4.25-2.71-4.25h-1.7v8.48h1.66C236,70.64,237.94,69.49,237.94,66.41Z"/><path class="cls-1" d="M250.31,61.64c2.23,0,4.3,1.28,4.3,4.75s-2.37,4.78-4.65,4.78h-1c-.42,0-.59-.1-1.06-.1s-.78.1-1.31.1c-.18,0-.19-.4,0-.4.41,0,.57-.52.57-.89v-7c0-.37-.16-.89-.57-.89-.22,0-.21-.39,0-.39.59,0,.76.1,1.31.1.28,0,1-.1,1.16-.1ZM253,66.41c0-2.85-1.74-4.25-2.71-4.25H248.6v8.48h1.65C251.06,70.64,253,69.49,253,66.41Z"/><path class="cls-1" d="M259.6,65.86c1,0,1.45-.19,1.45-.71a.19.19,0,0,1,.17-.21.18.18,0,0,1,.18.2V67a.18.18,0,1,1-.35,0c0-.55-.48-.68-1.45-.69h-1.8v4.36h2.57c1.13,0,1.7-.15,2.1-1.17,0-.1.11-.14.18-.14a.19.19,0,0,1,.17.21c-.07.34-.19,1.18-.19,1.18a.5.5,0,0,1-.5.45h-3.74c-.67,0-.77-.1-1.31-.1-.33,0-.78.1-1.31.1-.17,0-.19-.39,0-.39.41,0,.57-.53.57-.9v-7c0-.37-.16-.87-.57-.87-.22,0-.2-.41,0-.41.59,0,.76.1,1.31.1.29,0,.63-.1,1.08-.1h3.77a.52.52,0,0,1,.5.45s.1.85.17,1.18a.17.17,0,0,1-.17.21.19.19,0,0,1-.17-.14c-.4-1-1-1.17-2.1-1.17H257.8v3.69Z"/><path class="cls-1" d="M272.47,62c-.51,0-.79.62-1,1s-2.84,7.16-3.15,7.89a.32.32,0,0,1-.62,0c-.45-1-3-7.49-3.14-7.91s-.52-1-.95-1c-.23,0-.26-.39,0-.39s.94.07,1.46.07,1.14-.07,1.5-.07.19.39,0,.39c-.48,0-.53.49-.33,1,.46,1.09,2.32,6.52,2.32,6.52s2.31-5.95,2.51-6.48,0-1-.51-1a.19.19,0,0,1,0-.38c.37,0,.7,0,1.06,0s.53,0,.82,0A.2.2,0,1,1,272.47,62Z"/><path class="cls-1" d="M277.34,65.86c1,0,1.45-.19,1.45-.71a.19.19,0,0,1,.17-.21.18.18,0,0,1,.18.2V67a.18.18,0,1,1-.35,0c0-.55-.47-.68-1.45-.69h-1.8v4.36h2.57c1.13,0,1.7-.15,2.11-1.17,0-.1.1-.14.17-.14a.18.18,0,0,1,.17.21c-.07.34-.19,1.18-.19,1.18a.49.49,0,0,1-.5.45h-3.74c-.66,0-.76-.1-1.31-.1-.33,0-.78.1-1.31.1-.17,0-.19-.39,0-.39.42,0,.57-.53.57-.9v-7c0-.37-.15-.87-.57-.87-.22,0-.2-.41,0-.41.59,0,.76.1,1.31.1.29,0,.63-.1,1.08-.1h3.77a.52.52,0,0,1,.5.45s.1.85.18,1.18a.19.19,0,0,1-.18.21.19.19,0,0,1-.17-.14c-.4-1-1-1.17-2.1-1.17h-2.36v3.69Z"/><path class="cls-1" d="M288,69.33a.17.17,0,0,1,.17.21c-.07.34-.17,1.18-.17,1.18a.53.53,0,0,1-.52.45h-3.16c-.44,0-1.07-.1-1.31-.1-.55,0-.72.1-1.31.1-.18,0-.19-.4,0-.4.41,0,.56-.51.57-.89V62.94c0-.38-.16-.91-.57-.91-.22,0-.21-.39,0-.39.53,0,1,.09,1.31.09.54,0,.72-.09,1.31-.09.17,0,.18.39,0,.39-.43,0-.57.52-.57.89v7.72h2c1.12,0,1.69-.15,2.1-1.17C287.89,69.37,288,69.33,288,69.33Z"/><path class="cls-1" d="M297.59,66.32c0,2.55-1.64,5-4.33,5-2.47,0-4.4-2.12-4.4-4.89a4.67,4.67,0,0,1,4.49-4.95C295.81,61.47,297.58,63.31,297.59,66.32Zm-1.59,0c0-2.52-1.26-4.55-2.81-4.55s-2.81,2-2.81,4.55,1.26,4.56,2.81,4.56S296,68.87,296,66.35Z"/><path class="cls-1" d="M300.78,69.88c0,.38.15.89.58.89.2,0,.18.4,0,.4-.59,0-.76-.1-1.31-.1-.33,0-.77.1-1.31.1-.17,0-.19-.4,0-.4.42,0,.58-.52.58-.91V62.92c0-.37-.16-.89-.58-.89-.22,0-.2-.39,0-.39.59,0,.77.09,1.31.09.25,0,.88-.09,1.31-.09h1.38c2.54,0,3.49,1,3.49,2.61s-1.26,2.63-3.6,2.63h-1.86Zm1.87-3.46a2.13,2.13,0,0,0,2.19-2.17,2,2,0,0,0-2.23-2.09h-1.83v4.28C301.39,66.42,302,66.41,302.65,66.42Z"/><path class="cls-1" d="M316.52,70.78c.21,0,.18.39,0,.39-.57,0-.75-.1-1.29-.1-.35,0-.78.1-1.31.1-.18,0-.19-.39,0-.39.43,0,.58-.53.58-.9V63.17l-2.68,7.77a.33.33,0,0,1-.32.23.32.32,0,0,1-.31-.22l-3-7.71v6.64c0,.37.15.9.58.9.22,0,.2.39,0,.39s-.51-.09-.8-.09-.53.09-.79.09-.2-.39,0-.39c.41,0,.56-.52.57-.89v-7c0-.38-.14-.91-.57-.91-.22,0-.28-.39,0-.39a13.42,13.42,0,0,1,1.34.12,1.35,1.35,0,0,0,.33,0,.46.46,0,0,1,.46.3L312,68.94,314.47,62c.09-.32.36-.25.77-.25s.76-.1,1.29-.1c.17,0,.2.39,0,.39-.44,0-.58.53-.58.91v7c0,.37.16.88.58.88Z"/><path class="cls-1" d="M321.7,65.86c1,0,1.46-.19,1.46-.71,0-.14.08-.21.17-.21a.18.18,0,0,1,.17.2V67c0,.14-.08.21-.17.21s-.17-.07-.17-.21c0-.55-.48-.68-1.46-.69h-1.8v4.36h2.58c1.12,0,1.7-.15,2.1-1.17,0-.1.1-.14.17-.14a.19.19,0,0,1,.18.21c-.07.34-.19,1.18-.19,1.18a.5.5,0,0,1-.5.45h-3.75c-.66,0-.76-.1-1.3-.1-.34,0-.78.1-1.32.1-.17,0-.18-.39,0-.39.42,0,.58-.53.58-.9v-7c0-.37-.16-.87-.58-.87-.21,0-.2-.41,0-.41.6,0,.77.1,1.32.1.28,0,.63-.1,1.07-.1H324a.52.52,0,0,1,.5.45s.1.85.17,1.18a.17.17,0,0,1-.17.21.19.19,0,0,1-.17-.14c-.41-1-1-1.17-2.11-1.17H319.9v3.69Z"/><path class="cls-1" d="M334.11,71.17c-.8,0-1-.11-1.35-.11a2,2,0,0,0-.32,0,.5.5,0,0,1-.47-.3l-4.87-7.54v6.64c0,.37.15.9.58.9.22,0,.2.39,0,.39s-.51-.09-.8-.09-.53.09-.79.09-.2-.39,0-.39c.41,0,.56-.52.57-.89v-7c0-.38-.14-.91-.57-.91-.22,0-.28-.39,0-.39a13.42,13.42,0,0,1,1.34.12,1.35,1.35,0,0,0,.33,0,.46.46,0,0,1,.46.3l4.87,7.54V62.94c0-.38-.15-.91-.58-.91-.22,0-.19-.39,0-.39s.5.09.79.09.54-.09.8-.09.19.39,0,.39c-.42,0-.57.52-.57.89v7c0,.37.15.89.57.89C334.3,70.77,334.36,71.17,334.11,71.17Z"/><path class="cls-1" d="M339.7,62.15c0,.87,0,7.7,0,7.73,0,.38.16.89.57.89.22,0,.19.4,0,.4-.58,0-.75-.1-1.3-.1-.33,0-.77.1-1.31.1-.17,0-.18-.4,0-.4.43,0,.57-.52.57-.91,0-1.5,0-6.88,0-7.71h-1.07c-.89,0-1.68.44-1.68,1.18a.25.25,0,0,1-.23.27c-.1,0-.2-.09-.2-.27v-1.1a.58.58,0,0,1,.59-.59h6.65a.6.6,0,0,1,.59.59v1.1c0,.18-.1.27-.22.27a.26.26,0,0,1-.24-.27c0-.74-1-1.18-1.92-1.18Z"/><path class="cls-2" d="M38.34,13.81a18.43,18.43,0,0,0-6.52,1.48A44.06,44.06,0,0,1,38.34,13.81Z"/><path class="cls-3" d="M29.22,50.17l0,0,0,0Z"/><path class="cls-3" d="M32.49,66.19l-.13,0Z"/><path class="cls-3" d="M32.36,66.15c-.19,0-.38-.11-.57-.16Z"/><path class="cls-3" d="M33.7,66.4c-.41-.07-.81-.13-1.21-.21A9.25,9.25,0,0,0,33.7,66.4Z"/><path class="cls-4" d="M45.62,35.89c0-4.85-4-9.47-8.79-8.79C25.94,28.64,18.37,39.6,19.09,50.41a17.83,17.83,0,0,0,6.46,12.46A17.43,17.43,0,0,0,36,66.64c.28,0,.56,0,.84,0h.28a25.93,25.93,0,0,0,3-.13l.39,0A36.51,36.51,0,0,0,71.78,19.7a26.3,26.3,0,0,0-1.91-5A26.72,26.72,0,0,0,46,0c-.68,0-1.36,0-2,.08l-.3,0A47.66,47.66,0,0,0,1.05,57.54a44.15,44.15,0,0,0,1.13,4.32,25.7,25.7,0,0,0,42.56,9.37l.1-.06A24.34,24.34,0,0,1,19,69.85l-.5-.35q-.6-.44-1.17-.9c-.15-.12-.3-.24-.44-.37s-.44-.4-.66-.6c-10.3-9.79-5.77-25.75-4.74-28.89a45.35,45.35,0,0,1,3-6.93A32.05,32.05,0,0,1,34.78,15.9c7.68-1.91,17-1,21.26,11.84a18,18,0,0,1,.19,11.14l0,.06c-6.15,19-20.05,18.15-20.05,18.15a6.89,6.89,0,0,1-6.89-6.89l0,0C46.44,49.7,45.62,35.89,45.62,35.89Z"/><path class="cls-2" d="M34.78,15.9c-.73.18-1.44.39-2.15.63a44.07,44.07,0,0,1,8.19-1.39A23.86,23.86,0,0,0,34.78,15.9Z"/><path class="cls-5" d="M29.22,50.16h.05c17.17-.49,16.35-14.27,16.35-14.27,0-4.85-4-9.47-8.79-8.79C25.94,28.64,18.37,39.6,19.09,50.41a17.67,17.67,0,0,0,4.3,10.32,6.88,6.88,0,0,1,5.83-10.57Z"/><path class="cls-5" d="M2.18,61.86a25.7,25.7,0,0,0,42.56,9.37l.1-.06A24.34,24.34,0,0,1,19,69.85l-.5-.35q-.6-.44-1.17-.9c-.15-.12-.3-.24-.44-.37s-.44-.4-.66-.6c-10.3-9.79-5.77-25.75-4.74-28.89a45.35,45.35,0,0,1,3-6.93,32.24,32.24,0,0,1,18.1-15.28A44.34,44.34,0,0,0,.32,53a47.14,47.14,0,0,0,1.86,8.85Z"/></g></g></svg>